<svg width="230" height="121" viewBox="0 0 230 121" fill="none" xmlns="http://www.w3.org/2000/svg">
<path d="M194 62.38L6.67004 85.3V47.44L194 24.52V62.38Z" stroke="black" stroke-width="4.5" stroke-miterlimit="10"/>
<path d="M20.05 78L14.87 78.62L11.78 52.64L17 52L17.8 58.79L20.32 61.05L27.12 50.79L33.72 50L23.92 64.29L36.8 76L29.91 76.82L18.71 66.72L20.05 78Z" fill="black"/>
<path d="M65.75 72.4499L60.13 73.1199L45.86 69.5699L44.25 74.9999L38.6 75.6699L46.6 48.4899L51.6 47.8899L65.75 72.4499ZM50 55.5399L47.48 64.1399L56.35 66.4599L50 55.5399Z" fill="black"/>
<path d="M92.39 69.1701L87.18 69.7901L84.09 43.9001L89.24 43.2901L98.69 55.8601L104.91 41.4201L110.03 40.8201L113.11 66.7101L107.93 67.3301L106.09 51.8801L102.3 60.6701L107.36 67.4001L101.36 68.1101L99.9 66.1701L98.9 68.3901L92.9 69.1101L96.25 61.3901L90.49 53.7201L92.39 69.1701Z" fill="black"/>
<path d="M142.13 63.1599L136.51 63.8199L122.24 60.2799L120.64 65.6999L114.99 66.3699L122.99 39.2199L127.99 38.6299L142.13 63.1599ZM126.37 46.2599L123.85 54.8499L132.72 57.1699L126.37 46.2599Z" fill="black"/>
<path d="M158.86 52.63L166.22 60.28L159.73 61.05L152.92 54L148.34 54.55L149.27 62.32L144.09 62.93L142.55 50L148.36 49.31L141.63 42.31L141 37L153.45 35.52C155.565 35.2656 157.703 35.7581 159.494 36.9125C161.284 38.0668 162.615 39.8104 163.257 41.842C163.899 43.8736 163.81 46.0655 163.008 48.039C162.205 50.0124 160.738 51.6434 158.86 52.65V52.63ZM154.86 48.5H154.99C155.997 48.3443 156.904 47.8038 157.519 46.9925C158.135 46.1812 158.412 45.1624 158.292 44.1509C158.171 43.1394 157.662 42.2143 156.873 41.5705C156.084 40.9268 155.075 40.6147 154.06 40.7L148.06 41.41L154.86 48.5Z" fill="black"/>
<path d="M179.41 58.8C174.16 59.4 168.69 57.12 168.12 52.56L168.06 52.07L173.24 51.49L173.3 51.97C173.48 53.41 176.47 54.12 178.79 53.85C180.503 53.7533 182.117 53.0142 183.31 51.78L166.88 42.6L166.72 41.35C166.16 36.85 170.72 33.35 176.16 32.75C181.6 32.15 186.88 34.46 187.45 38.99L187.51 39.47L182.33 40.06L182.27 39.58C182.09 38.14 179.1 37.43 176.78 37.7C175.071 37.8138 173.463 38.5502 172.26 39.77L188.69 49L188.84 50.25C189.4 54.67 184.82 58.18 179.41 58.8Z" fill="black"/>
<path d="M85.26 69.9999L84.62 64.8499L72.14 66.3299L69.67 45.6799L64.49 46.2899L67.58 72.0899L85.26 69.9999Z" fill="black"/>
<g clip-path="url(#clip0_131_113)">
<path fill-rule="evenodd" clip-rule="evenodd" d="M25.7203 93.2573C-9.79943 106.37 89.373 99.5083 111.56 96.698L110.914 91.4405L130.331 97.0903L112.859 107.284L112.309 102.798C67.7899 109.003 -38.7742 109.124 23.1217 91.1375C23.8121 91.8633 24.6289 92.5305 25.5384 93.1361L25.7203 93.2573ZM183.474 73.1057C201.315 74.767 197.83 80.6609 167.462 87.7108C158.855 89.7073 149.102 91.7585 138.334 93.4321L138.859 97.7074C150.843 95.8701 161.886 93.3091 171.551 91.0894C217.23 80.5958 214.563 72.2008 184.712 70.9452C184.386 71.6954 183.973 72.4132 183.474 73.1057Z" fill="black"/>
</g>
<path fill-rule="evenodd" clip-rule="evenodd" d="M223.084 17.3092C223.403 16.2684 223.861 15.6106 224.459 15.3398C225.056 15.069 225.836 15.0806 226.802 15.3761C227.263 15.517 227.634 15.6827 227.903 15.8608C228.17 16.0429 228.38 16.2335 228.521 16.4378C228.667 16.6395 228.765 16.8394 228.826 17.0326C228.888 17.2258 228.915 17.4393 228.915 17.6745C228.921 18.1211 228.85 18.5662 228.714 19.0128C228.41 20.0058 227.977 20.6713 227.411 20.9997C226.85 21.3297 226.053 21.339 225.016 21.022C224.44 20.8459 223.992 20.6262 223.681 20.3739C223.37 20.1177 223.141 19.812 223.002 19.4599C222.899 19.206 222.853 18.891 222.869 18.5165C222.882 18.1325 222.954 17.7359 223.084 17.3092ZM181.805 5.63944L177.492 3.62329C178.217 2.5976 179.201 1.93924 180.454 1.65525C181.703 1.36973 183.304 1.52356 185.252 2.1192C187.491 2.80366 189.003 3.6277 189.801 4.59992C190.594 5.5706 190.834 6.55963 190.526 7.56457C190.346 8.15477 189.977 8.62636 189.431 8.97842C188.88 9.33293 188.145 9.56638 187.219 9.6757C187.84 10.0094 188.305 10.3171 188.597 10.5983C189.082 11.052 189.41 11.5576 189.586 12.1087C189.762 12.6637 189.756 13.2551 189.562 13.8891C189.318 14.6867 188.825 15.3688 188.08 15.9433C187.331 16.5123 186.408 16.8449 185.305 16.9396C184.203 17.0342 182.851 16.8346 181.248 16.3446C179.691 15.8684 178.504 15.3442 177.696 14.779C176.884 14.2122 176.273 13.5589 175.865 12.815C175.456 12.0751 175.227 11.229 175.178 10.2807L180.106 11.2335C180.062 12.0573 180.184 12.679 180.488 13.099C180.789 13.5135 181.243 13.8182 181.854 14.005C182.49 14.1995 183.078 14.1744 183.617 13.9336C184.157 13.6929 184.519 13.2588 184.71 12.6367C184.903 12.0026 184.848 11.4493 184.548 10.9783C184.249 10.5074 183.746 10.1619 183.045 9.94756C182.675 9.83425 182.137 9.74832 181.439 9.7008L182.515 7.0601C182.766 7.17163 182.966 7.25036 183.112 7.29477C183.728 7.48311 184.292 7.48131 184.799 7.29183C185.306 7.10235 185.63 6.79579 185.763 6.36112C185.891 5.94239 185.837 5.56393 185.601 5.22574C185.366 4.88356 184.973 4.62825 184.437 4.46441C183.876 4.29291 183.384 4.29069 182.951 4.45069C182.515 4.60517 182.136 5.00377 181.805 5.63944ZM206.456 12.2081L201.567 11.2191C201.603 10.6544 201.51 10.2248 201.285 9.9206C201.055 9.61492 200.728 9.397 200.302 9.26684C199.531 9.03104 198.836 9.15435 198.22 9.6463C197.771 10.002 197.245 10.8831 196.652 12.3023C197.364 12.0142 198.054 11.8544 198.717 11.8173C199.385 11.7817 200.115 11.8829 200.902 12.1233C202.434 12.5918 203.594 13.4216 204.385 14.614C205.174 15.8104 205.367 17.0774 204.959 18.4133C204.683 19.3146 204.167 20.0549 203.402 20.6408C202.638 21.2227 201.724 21.5623 200.66 21.6557C199.591 21.7476 198.346 21.5762 196.913 21.1382C195.195 20.613 193.889 19.9606 192.996 19.1731C192.102 18.3896 191.497 17.3937 191.188 16.1829C190.879 14.9721 190.982 13.5253 191.498 11.8385C192.251 9.37398 193.455 7.76655 195.113 7.0177C196.761 6.26578 198.745 6.2443 201.059 6.95172C202.426 7.36975 203.465 7.82258 204.18 8.31575C204.894 8.80891 205.442 9.38191 205.817 10.0197C206.194 10.667 206.409 11.3956 206.456 12.2081ZM195.814 15.6173C195.587 16.359 195.646 17.0092 195.983 17.5704C196.326 18.133 196.832 18.5189 197.514 18.7272C198.14 18.9186 198.724 18.8879 199.261 18.6377C199.797 18.3875 200.181 17.8855 200.411 17.1318C200.646 16.3622 200.606 15.7046 200.294 15.1686C199.976 14.6311 199.497 14.2624 198.846 14.0633C198.185 13.8612 197.565 13.8851 196.993 14.1421C196.428 14.3966 196.037 14.8875 195.814 15.6173ZM206.705 16.3394C207.499 13.7433 208.64 12.104 210.134 11.427C211.623 10.7485 213.575 10.7782 215.974 11.5117C217.131 11.8654 218.042 12.2704 218.715 12.7204C219.387 13.1743 219.903 13.6547 220.257 14.16C220.617 14.6668 220.871 15.163 221.014 15.6429C221.162 16.1284 221.234 16.6608 221.236 17.2457C221.246 18.3606 221.081 19.4743 220.742 20.5829C219.983 23.0634 218.904 24.7131 217.496 25.5385C216.093 26.3654 214.105 26.3854 211.525 25.5968C210.083 25.1558 208.972 24.6156 208.193 23.9762C207.413 23.3367 206.852 22.5764 206.498 21.692C206.241 21.0639 206.125 20.2785 206.161 19.3347C206.202 18.3965 206.382 17.3962 206.705 16.3394ZM211.425 17.7913C210.894 19.53 210.721 20.7766 210.916 21.5341C211.107 22.29 211.571 22.7766 212.308 23.0017C212.794 23.1502 213.251 23.1417 213.688 22.9832C214.126 22.8208 214.519 22.4697 214.862 21.938C215.211 21.4039 215.569 20.5191 215.947 19.2829C216.502 17.4684 216.684 16.1939 216.486 15.4444C216.29 14.7044 215.806 14.2118 215.034 13.976C214.243 13.734 213.579 13.88 213.03 14.4054C212.488 14.9418 211.952 16.0686 211.425 17.7913ZM224.976 17.892C224.763 18.5899 224.693 19.0874 224.77 19.3901C224.847 19.6928 225.034 19.8893 225.329 19.9796C225.525 20.0394 225.706 20.038 225.885 19.9708C226.058 19.906 226.216 19.7667 226.358 19.5528C226.495 19.3374 226.641 18.9853 226.792 18.4908C227.014 17.765 227.089 17.2515 227.01 16.9528C226.932 16.6541 226.739 16.4601 226.429 16.3651C226.113 16.2687 225.844 16.3258 225.626 16.5382C225.402 16.749 225.187 17.2021 224.976 17.892Z" fill="black"/>
<defs>
<clipPath id="clip0_131_113">
<rect width="203.711" height="46.8405" fill="black" transform="translate(1 73.8262) rotate(-7)"/>
</clipPath>
</defs>
</svg>
