<svg width="83" height="28" viewBox="0 0 83 28" fill="none" xmlns="http://www.w3.org/2000/svg">
<path d="M0 28V10.0465L82.0491 0V17.9617L0 28ZM1.70986 11.5517V26.0673L80.3412 16.4483V1.94284L1.70986 11.5517Z" fill="white"/>
<path d="M6.59428 23.8853L4.36579 24.1507L3.04895 13.0265L5.27744 12.7631L5.62387 15.6764L6.70368 16.6468L9.61288 12.2465L12.4491 11.9082L8.25349 18.0406L13.7761 23.0304L10.8183 23.3829L6.0169 19.0536L6.59428 23.8853Z" fill="white"/>
<path d="M26.1909 21.5234L23.7821 21.809L17.6619 20.2876L16.9731 22.6174L14.542 22.903L17.986 11.244L20.1193 10.9907L26.1909 21.5234ZM19.4305 14.2686L18.3487 17.9578L22.1533 18.9606L19.4305 14.2686Z" fill="white"/>
<path d="M37.619 20.1171L35.3905 20.3825L34.0594 9.27646L36.2636 9.01309L40.3154 14.406L42.9896 8.22299L45.1776 7.95557L46.5005 19.0616L44.272 19.3249L43.4819 12.6982L41.8612 16.4704L44.039 19.3655L41.4702 19.6693L40.8442 18.8387L40.439 19.7929L37.8722 20.0968L39.3025 16.7763L36.8289 13.4903L37.619 20.1171Z" fill="white"/>
<path d="M58.9538 17.542L56.5449 17.8277L50.4247 16.3082L49.7359 18.634L47.3048 18.9217L50.7488 7.27474L52.876 7.00732L58.9538 17.542ZM52.1893 10.2893L51.1074 13.9744L54.9141 14.9671L52.1893 10.2893Z" fill="white"/>
<path d="M66.1255 13.0204L69.2859 16.3023L66.5003 16.6325L63.579 13.5937L61.6179 13.8267L62.0231 17.1593L59.7946 17.4226L59.128 11.8696L61.624 11.5718L58.735 8.5735L58.4656 6.30854L63.8038 5.67444C64.7108 5.56556 65.6273 5.77684 66.3951 6.27178C67.1628 6.76672 67.7337 7.51425 68.0089 8.38525C68.2842 9.25626 68.2467 10.1961 67.9028 11.0423C67.5589 11.8886 66.9303 12.5882 66.1255 13.0204ZM64.4076 11.2497H64.4663C64.9101 11.196 65.3144 10.9682 65.5902 10.6163C65.8661 10.2645 65.9908 9.81755 65.9371 9.37373C65.8834 8.92992 65.6555 8.52563 65.3037 8.2498C64.9519 7.97397 64.5049 7.8492 64.0611 7.90293L61.4862 8.20276L64.4076 11.2497Z" fill="white"/>
<path d="M74.9362 15.6685C72.6854 15.9217 70.3394 14.9473 70.0963 12.9902L70.0699 12.7877L72.2984 12.5344L72.3248 12.737C72.4017 13.3569 73.6821 13.6588 74.6789 13.5474C75.3859 13.4684 76.1578 13.2131 76.6156 12.658L69.5655 8.71965L69.4885 8.18278C69.2494 6.25412 71.2146 4.75901 73.5403 4.49564C75.8194 4.23632 78.1391 5.23104 78.3802 7.17388L78.4065 7.37647L76.178 7.62769L76.1517 7.4251C76.0747 6.80517 74.7943 6.50331 73.7996 6.61473C73.1068 6.69374 72.3065 6.96521 71.8608 7.50613L78.9171 11.4445L78.9839 11.9814C79.2128 13.8958 77.2599 15.4031 74.9362 15.6685Z" fill="white"/>
<path d="M34.5579 20.4678L34.2844 18.2596L28.934 18.8937L27.8765 10.0405L25.6541 10.3039L26.977 21.3673L34.5579 20.4678Z" fill="white"/>
</svg>
